<svg width="20" height="20" fill="none" xmlns="http://www.w3.org/2000/svg"><path d="M10.332 19.604c5.268 0 9.538-4.273 9.538-9.544 0-5.27-4.27-9.544-9.538-9.544C5.065.516.795 4.79.795 10.06c0 5.271 4.27 9.544 9.537 9.544Z" fill="#273B7A"/><path d="m19.655 12.08-5.831-5.835-4.862.388L6.48 8.9l.318 4.935 5.522 5.56a9.552 9.552 0 0 0 7.336-7.316Z" fill="#121149"/><path d="M10.54 9.183v1.83h2.86a3.211 3.211 0 1 1-3.067-4.164c.828 0 1.58.316 2.15.832l1.341-1.437a5.15 5.15 0 0 0-3.491-1.358 5.173 5.173 0 0 0-5.171 5.174 5.173 5.173 0 0 0 5.17 5.175 5.173 5.173 0 0 0 5.095-6.052h-4.886Z" fill="#4285F4"/><path d="M10.332 6.849c.829 0 1.581.317 2.15.832l1.342-1.437a5.169 5.169 0 0 0-8.06 1.392l1.578 1.266a3.208 3.208 0 0 1 2.99-2.053Z" fill="#EA4335"/><path d="M7.123 10.061c0-.409.08-.799.22-1.159l-1.58-1.264a5.153 5.153 0 0 0-.602 2.424c0 .88.22 1.708.607 2.433l1.569-1.286a3.2 3.2 0 0 1-.215-1.148Z" fill="#FBBC05"/><path d="M12.117 12.729a3.19 3.19 0 0 1-1.784.544 3.208 3.208 0 0 1-2.995-2.064L5.77 12.495a5.169 5.169 0 0 0 7.924 1.497l-1.577-1.263Z" fill="#34A853"/><path d="M15.503 10.06c0-.299-.027-.592-.076-.877H10.54v1.829h2.858a3.218 3.218 0 0 1-1.282 1.716l1.576 1.263a5.163 5.163 0 0 0 1.81-3.93Z" fill="#4285F4"/></svg>